<svg width="50" height="20" viewBox="0 0 50 20" fill="none" xmlns="http://www.w3.org/2000/svg">
<g clip-path="url(#clip0)">
<g filter="url(#filter0_d)">
<path fill-rule="evenodd" clip-rule="evenodd" d="M33.3504 11.4979C33.3376 11.511 32.8298 11.4925 32.2222 11.4569C31.6144 11.4212 31.1003 11.4194 31.0798 11.453C31.0592 11.4865 30.9417 11.473 30.8187 11.423C30.6956 11.3731 30.5706 11.3474 30.5409 11.3657C30.5111 11.3842 30.0957 11.3962 29.6177 11.3922C28.2976 11.3816 27.8714 11.3823 27.8707 11.395C27.8704 11.4015 27.4761 11.392 26.9946 11.3739C26.1119 11.3408 25.1115 11.3427 24.4355 11.3788C24.1238 11.3955 23.3142 11.3921 22.462 11.3707C22.3416 11.3677 22.1927 11.382 22.1313 11.4025C22.0698 11.423 21.8387 11.439 21.6176 11.4379C20.9747 11.435 20.3356 11.4577 19.2369 11.5224C18.6721 11.5557 17.9544 11.5823 17.6421 11.5816C17.3298 11.5808 17.049 11.5959 17.0181 11.6151C16.9587 11.6518 16.0994 11.7076 15.883 11.6887C15.813 11.6826 15.7542 11.7036 15.7524 11.7353C15.7507 11.767 15.6752 11.7945 15.5846 11.7963C15.494 11.798 15.1895 11.8015 14.9079 11.8039C14.6263 11.8063 14.3126 11.8266 14.2109 11.8491C14.1091 11.8716 13.8773 11.8983 13.6958 11.9085C12.9762 11.9487 12.4881 11.9937 12.1768 12.0482C12.062 12.0682 11.8032 12.0916 11.6017 12.1001C11.1676 12.1182 10.5483 12.2282 10.3683 12.3193C10.2953 12.3563 10.225 12.3514 10.2049 12.308C10.1847 12.2645 10.0503 12.256 9.89185 12.2881C9.73917 12.319 9.38258 12.3687 9.09946 12.3986C8.81634 12.4285 8.5018 12.4648 8.40048 12.4791C8.29916 12.4934 7.95107 12.5415 7.62694 12.5859C6.53051 12.7358 5.93227 12.8387 5.73393 12.9115C5.62528 12.9514 5.52018 12.9627 5.50033 12.937C5.48048 12.9111 5.26972 12.9427 5.03199 13.0072C4.79425 13.0717 4.5296 13.1299 4.44391 13.1366C4.09778 13.1637 2.31911 13.4629 2.25007 13.5058C2.20934 13.531 2.07904 13.5539 1.96053 13.5565C1.84202 13.5592 1.64833 13.6338 1.53019 13.7222C1.40451 13.8163 1.30677 13.8453 1.29451 13.792C1.28061 13.7313 1.1265 13.7378 0.831009 13.8117C0.587629 13.8726 0.227907 13.9445 0.0316477 13.9716C-0.164539 13.9987 -0.368164 14.0572 -0.420923 14.1018C-0.473604 14.1462 -0.53484 14.1589 -0.557004 14.13C-0.57924 14.1011 -0.642215 14.1056 -0.697044 14.1399C-0.751946 14.1743 -0.830828 14.206 -0.872384 14.2105C-0.987775 14.2229 -1.80604 14.4431 -2.05318 14.5283C-2.17362 14.5698 -2.3239 14.6103 -2.38713 14.6182C-2.4804 14.6298 -3.43932 14.863 -3.57733 14.9077C-3.5978 14.9143 -3.66746 14.9101 -3.73217 14.8984C-3.88144 14.8715 -3.96902 15.2273 -3.84914 15.3732C-3.74378 15.5013 -3.61125 15.5214 -3.6051 15.4101C-3.60266 15.3661 -3.48488 15.3131 -3.34337 15.2924C-3.20185 15.2716 -3.09893 15.2268 -3.11467 15.1929C-3.13041 15.159 -3.04732 15.1542 -2.93 15.1823C-2.81267 15.2103 -2.67216 15.1958 -2.61771 15.1498C-2.56327 15.1039 -2.37156 15.052 -2.19162 15.0345C-1.91987 15.008 -1.18073 14.8385 -0.714379 14.6957C-0.653024 14.6769 -0.509851 14.6539 -0.396238 14.6446C-0.282625 14.6353 -0.119909 14.5908 -0.0347221 14.5455C0.050538 14.5002 0.240128 14.4549 0.386693 14.4446C0.741173 14.4199 1.66335 14.2046 1.62557 14.1554C1.60913 14.1339 1.68344 14.1188 1.79061 14.1217C2.11283 14.1303 3.73985 13.8859 3.94104 13.7986C4.04404 13.7539 4.19434 13.7131 4.27504 13.7078C4.72085 13.6789 5.07798 13.6248 5.18666 13.5698C5.25428 13.5355 5.35071 13.5277 5.40096 13.5523C5.45121 13.5771 5.5501 13.5734 5.62073 13.5442C5.75899 13.4872 5.78222 13.4835 6.3373 13.4325C6.53938 13.4138 6.83175 13.37 6.98699 13.3351C7.30665 13.2631 7.30636 13.2632 8.65699 13.1292C10.108 12.9853 10.5007 12.9267 10.6052 12.8386C10.6654 12.7878 10.7222 12.7903 10.7646 12.8456C10.8066 12.9003 10.9193 12.9086 11.075 12.8684C11.2094 12.8338 11.5719 12.7994 11.8805 12.7921C12.189 12.7847 12.5083 12.7604 12.5899 12.7382C12.7466 12.6955 12.7767 12.6928 13.4714 12.6617C13.7133 12.6508 13.9942 12.6274 14.0957 12.6094C14.1973 12.5914 14.4618 12.5672 14.6836 12.5556C14.9054 12.5439 15.1371 12.5178 15.1985 12.4978C15.26 12.4777 15.5073 12.4571 15.7481 12.4521C15.989 12.4471 16.2132 12.4 16.2463 12.3475C16.2916 12.2758 16.3053 12.2782 16.3019 12.3571C16.2992 12.4149 16.344 12.4653 16.4012 12.4692C16.4584 12.473 16.5512 12.432 16.6073 12.3779C16.6721 12.3154 16.9485 12.2931 17.3653 12.3168C17.726 12.3373 18.2192 12.3423 18.4613 12.3279C18.7033 12.3135 19.0813 12.294 19.3013 12.2847C19.5212 12.2754 19.7292 12.2233 19.7635 12.1689C19.8092 12.0963 19.8246 12.0963 19.8215 12.1689C19.8189 12.2273 19.8997 12.262 20.0189 12.2536C20.1299 12.2458 20.5501 12.233 20.9526 12.2252C21.3552 12.2174 21.7751 12.2091 21.8858 12.2067C21.9965 12.2044 22.1121 12.1955 22.1428 12.1868C22.1734 12.1782 22.3539 12.1849 22.544 12.2018C22.7341 12.2186 22.8912 12.2049 22.8931 12.1713C22.8951 12.1377 23.1179 12.1239 23.3883 12.1407C24.2113 12.1918 25.9619 12.1806 26.1859 12.1228C26.302 12.093 26.4135 12.0901 26.4337 12.1165C26.454 12.1429 26.677 12.17 26.9294 12.1768C27.7501 12.1987 28.6228 12.2092 28.9594 12.2012C29.1405 12.1969 30.0279 12.213 30.9313 12.2369C31.8347 12.2607 32.6236 12.2731 32.6844 12.2641C32.7452 12.2552 32.8544 12.2491 32.9271 12.2505C33.0127 12.2521 33.0419 12.2147 33.0103 12.1443C32.9725 12.0603 32.984 12.0593 33.0611 12.1399C33.186 12.2705 33.8447 12.4353 33.8501 12.3373C33.8523 12.2975 34.3207 12.3049 34.891 12.3539C35.4612 12.4028 36.0366 12.4164 36.1695 12.384C36.3025 12.3517 36.392 12.3566 36.3684 12.3949C36.3449 12.4333 37.0312 12.5088 37.8936 12.5628C38.9719 12.6304 39.4635 12.6324 39.4677 12.5695C39.4717 12.5115 39.4922 12.5163 39.5241 12.5829C39.5609 12.6597 40.2421 12.7446 42.0824 12.9015C43.462 13.019 44.6993 13.1457 44.8322 13.1829C45.0075 13.232 45.0609 13.2225 45.0264 13.1482C44.9919 13.0738 45.015 13.0699 45.1108 13.134C45.1833 13.1824 45.4717 13.2459 45.7515 13.275C46.0314 13.3042 46.3904 13.3562 46.5493 13.3908C46.7083 13.4253 46.8713 13.4524 46.9115 13.4509C46.9518 13.4495 47.0838 13.442 47.2049 13.4342C47.326 13.4264 47.4557 13.4434 47.4931 13.4719C47.5307 13.5005 47.6929 13.5422 47.8536 13.5646C48.0143 13.5871 48.3742 13.6404 48.6533 13.6831C48.9324 13.7258 49.4544 13.8051 49.8133 13.8591C50.1722 13.9133 50.6667 13.9896 50.9121 14.0287C51.1674 14.0695 51.4242 14.065 51.512 14.0185C51.6356 13.9529 51.678 13.9668 51.7295 14.0893C51.7808 14.2113 51.813 14.222 51.8913 14.143C52.0051 14.0281 52.1359 14.0174 52.0677 14.1286C52.0003 14.2383 52.6196 14.4156 52.6935 14.3078C52.7322 14.2514 52.7504 14.258 52.7472 14.3275C52.7446 14.3853 52.8245 14.4381 52.9246 14.4449C53.1549 14.4605 53.1764 14.2557 52.9631 14.0793C52.8766 14.0078 52.6106 13.9097 52.372 13.8614C52.1334 13.8131 51.7554 13.7117 51.532 13.6362C51.2388 13.537 51.1023 13.5227 51.0414 13.5849C50.9811 13.6463 50.9584 13.645 50.9619 13.5801C50.9647 13.5301 50.886 13.4655 50.7871 13.4366C50.6882 13.4077 50.6052 13.4213 50.6027 13.4667C50.6002 13.5121 50.5508 13.4982 50.493 13.4356C50.4352 13.373 50.3657 13.3444 50.3387 13.372C50.3117 13.3994 50.2549 13.3845 50.2125 13.3386C50.1701 13.2928 49.8473 13.2142 49.4951 13.1639C49.1428 13.1136 48.8343 13.056 48.8094 13.0361C48.7846 13.0161 48.4051 12.9494 47.9662 12.8879C47.5273 12.8263 47.038 12.7503 46.8789 12.7188C46.7198 12.6875 46.3522 12.6295 46.0619 12.59C45.7717 12.5506 45.5032 12.4931 45.4652 12.4623C45.4273 12.4315 45.3609 12.4916 45.3179 12.5959C45.2418 12.7801 45.2397 12.7803 45.2448 12.6052C45.2499 12.4357 45.2119 12.4217 44.609 12.3714C44.2563 12.342 43.7252 12.2797 43.4286 12.233C42.5872 12.1006 41.7779 12.0328 41.1544 12.0425C40.84 12.0474 40.5667 12.0306 40.5472 12.0052C40.4829 11.9214 34.1154 11.5048 34.1111 11.584C34.1087 11.6259 34.0712 11.6312 34.0276 11.5958C33.949 11.532 33.3952 11.4519 33.3504 11.4979ZM47.4448 13.0617C47.467 13.1096 47.4688 13.1476 47.4488 13.1462C47.4287 13.1449 47.3942 13.1046 47.372 13.0568C47.3498 13.0089 47.348 12.9709 47.368 12.9723C47.3881 12.9736 47.4226 13.0139 47.4448 13.0617ZM50.8111 13.6645C50.8099 13.6849 50.7696 13.7259 50.7216 13.7557C50.6674 13.7893 50.656 13.7744 50.6916 13.7165C50.7488 13.6233 50.8149 13.5945 50.8111 13.6645Z" fill="black"/>
</g>
<g filter="url(#filter1_d)">
<path fill-rule="evenodd" clip-rule="evenodd" d="M33.5627 12.5229C33.5509 12.5392 33.0519 12.5578 32.4538 12.5644C31.8557 12.571 31.3514 12.6095 31.333 12.6502C31.3147 12.6908 31.1987 12.6845 31.0753 12.636C30.9519 12.5876 30.8279 12.5675 30.7997 12.5913C30.7715 12.6151 30.3647 12.6619 29.8955 12.6952C28.6001 12.7872 28.1821 12.8217 28.1821 12.8366C28.1821 12.8442 27.7948 12.8643 27.3215 12.8813C26.4538 12.9126 25.4727 12.994 24.8115 13.0895C24.5067 13.1336 23.7124 13.1937 22.8753 13.2362C22.7569 13.2421 22.6117 13.2706 22.5526 13.2993C22.4934 13.3281 22.2675 13.365 22.0506 13.3812C21.4198 13.4287 20.7941 13.5056 19.7199 13.668C19.1677 13.7514 18.4652 13.8392 18.1587 13.863C17.8524 13.8868 17.5777 13.9266 17.5484 13.9514C17.4922 13.9989 16.6523 14.1318 16.439 14.1269C16.37 14.1253 16.3135 14.1544 16.3135 14.1915C16.3135 14.2286 16.2409 14.2666 16.1521 14.2758C16.0633 14.285 15.7649 14.3131 15.4888 14.3382C15.2127 14.3633 14.9061 14.4118 14.8075 14.446C14.7089 14.4802 14.483 14.5297 14.3055 14.5559C13.6018 14.6596 13.1254 14.7506 12.823 14.8387C12.7115 14.8711 12.4589 14.9188 12.2616 14.9446C11.8368 15 11.2354 15.1772 11.0637 15.2975C10.9941 15.3463 10.9249 15.3462 10.9028 15.2973C10.8807 15.2482 10.7483 15.2489 10.5947 15.2988C10.4466 15.3469 10.0995 15.433 9.82338 15.4902C9.54729 15.5474 9.24071 15.6145 9.14211 15.6392C9.0435 15.664 8.70465 15.7474 8.38911 15.8247C7.32173 16.0861 6.74049 16.2532 6.54987 16.3537C6.44546 16.4087 6.34298 16.4303 6.32211 16.4018C6.30124 16.3733 6.09621 16.4268 5.86652 16.5206C5.63682 16.6146 5.38037 16.7033 5.29668 16.7179C4.95862 16.7768 3.23011 17.266 3.1647 17.3213C3.12612 17.3539 2.99955 17.3908 2.88344 17.4033C2.76734 17.4158 2.58139 17.518 2.4703 17.6303C2.35212 17.7498 2.25781 17.7913 2.2429 17.7303C2.22597 17.6606 2.07516 17.6804 1.78931 17.7898C1.55387 17.88 1.20492 17.9922 1.01387 18.0393C0.822897 18.0863 0.62633 18.1706 0.576991 18.2266C0.527724 18.2825 0.468345 18.3022 0.445038 18.2703C0.421659 18.2384 0.360129 18.2486 0.308209 18.2929C0.256216 18.3373 0.180558 18.3804 0.14004 18.389C0.0275215 18.4125 -0.763193 18.7337 -1.001 18.8525C-1.11688 18.9104 -1.2621 18.9693 -1.32371 18.9835C-1.41457 19.0044 -2.34254 19.3519 -2.4755 19.4148C-2.49522 19.4241 -2.56378 19.4248 -2.62789 19.4162C-2.77576 19.3967 -2.84239 19.8179 -2.71689 19.9783C-2.60659 20.1192 -2.4755 20.1322 -2.4755 20.0021C-2.4755 19.9506 -2.36284 19.8796 -2.22515 19.8442C-2.08746 19.8088 -1.98892 19.7486 -2.0062 19.7103C-2.02349 19.6721 -1.94224 19.6599 -1.82563 19.6834C-1.70902 19.7067 -1.57198 19.6786 -1.52106 19.6209C-1.47015 19.5631 -1.28491 19.4875 -1.10935 19.4528C-0.844229 19.4005 -0.128384 19.1446 0.321332 18.9415C0.380496 18.9147 0.519692 18.8766 0.630633 18.8568C0.741574 18.837 0.89877 18.7722 0.979878 18.7128C1.06106 18.6533 1.24457 18.5856 1.38779 18.562C1.73416 18.5052 2.62707 18.1815 2.58734 18.1272C2.57006 18.1035 2.64213 18.08 2.7474 18.0749C3.06395 18.0595 4.64667 17.6461 4.83929 17.5286C4.9379 17.4683 5.08312 17.4089 5.162 17.3964C5.59773 17.3275 5.94511 17.2362 6.04874 17.1636C6.11321 17.1183 6.20737 17.1016 6.258 17.1263C6.30863 17.1511 6.40544 17.139 6.47314 17.0994C6.60567 17.0221 6.62826 17.016 7.16998 16.9126C7.36719 16.875 7.65161 16.8008 7.80199 16.7478C8.11165 16.6387 8.11137 16.6388 9.42896 16.3759C10.8444 16.0936 11.2265 15.9943 11.3243 15.8834C11.3805 15.8195 11.4364 15.818 11.481 15.879C11.5251 15.9394 11.6362 15.9401 11.7867 15.881C11.9167 15.83 12.2704 15.7614 12.5727 15.7284C12.8749 15.6953 13.1868 15.6419 13.2656 15.6095C13.417 15.5474 13.4464 15.5419 14.1262 15.4507C14.3629 15.4189 14.6372 15.3694 14.7358 15.3404C14.8344 15.3115 15.0925 15.2623 15.3095 15.2312C15.5264 15.2001 15.7523 15.1514 15.8115 15.1232C15.8706 15.095 16.1122 15.0514 16.3481 15.0265C16.5841 15.0016 16.8015 14.9291 16.8311 14.8653C16.8716 14.7782 16.8852 14.78 16.8861 14.8721C16.8867 14.9396 16.9333 14.9947 16.9897 14.9947C17.0459 14.9947 17.1347 14.9396 17.1869 14.8721C17.247 14.7942 17.5169 14.7465 17.927 14.7411C18.282 14.7364 18.7661 14.7032 19.0027 14.6673C19.2394 14.6314 19.6091 14.5788 19.8243 14.5506C20.0396 14.5223 20.2408 14.4452 20.2715 14.3791C20.3124 14.291 20.3275 14.2897 20.3284 14.3745C20.329 14.4427 20.4102 14.4767 20.5266 14.4576C20.6351 14.4397 21.0466 14.3915 21.441 14.3506C21.8354 14.3096 22.2469 14.2668 22.3553 14.2553C22.4638 14.2438 22.5767 14.2243 22.6063 14.2117C22.636 14.1993 22.8134 14.1928 23.0008 14.1974C23.1881 14.202 23.3415 14.1736 23.3415 14.1343C23.3417 14.095 23.5595 14.0614 23.8256 14.0595C24.6356 14.0539 26.3523 13.9024 26.5689 13.8174C26.6811 13.7734 26.7903 13.7613 26.8116 13.7904C26.8329 13.8195 27.0532 13.8335 27.3011 13.8214C28.1073 13.782 28.9639 13.7252 29.2936 13.6893C29.4711 13.6699 30.3424 13.6184 31.2299 13.5748C32.1174 13.5311 32.8919 13.4831 32.951 13.4679C33.0102 13.4527 33.117 13.4369 33.1883 13.4327C33.2724 13.4278 33.299 13.382 33.2642 13.3026C33.2225 13.2077 33.2338 13.2057 33.3137 13.2934C33.4434 13.4356 34.0984 13.5754 34.0984 13.4609C34.0984 13.4143 34.5583 13.3859 35.1204 13.3978C35.6824 13.4097 36.2475 13.38 36.3761 13.3318C36.5048 13.2836 36.5929 13.2823 36.5718 13.3288C36.5508 13.3753 37.2282 13.4089 38.077 13.4036C39.1384 13.3969 39.6207 13.3605 39.6215 13.2869C39.6222 13.219 39.6426 13.223 39.6775 13.298C39.7177 13.3846 40.3905 13.4295 42.2042 13.4666C43.5638 13.4944 44.7845 13.544 44.9169 13.5768C45.0915 13.6201 45.1433 13.6048 45.1055 13.521C45.0675 13.4372 45.09 13.4308 45.1874 13.4978C45.2612 13.5484 45.5475 13.5995 45.8236 13.6113C46.0997 13.6232 46.4547 13.6553 46.6125 13.683C46.7702 13.7107 46.9316 13.7293 46.971 13.7244C47.0105 13.7196 47.1396 13.7004 47.2579 13.6817C47.3762 13.6631 47.5044 13.6726 47.5427 13.7028C47.581 13.7331 47.7424 13.7689 47.9012 13.7823C48.0601 13.7957 48.4161 13.8294 48.6922 13.857C48.9683 13.8847 49.4846 13.9357 49.8396 13.9702C50.1946 14.0048 50.6837 14.0546 50.9266 14.0808C51.1793 14.108 51.4308 14.0825 51.5144 14.0214C51.6321 13.9353 51.6745 13.948 51.7317 14.0867C51.7886 14.2247 51.8208 14.2346 51.8933 14.1364C51.9987 13.9936 52.1264 13.9708 52.0655 14.1057C52.0054 14.2387 52.6225 14.3962 52.6891 14.2648C52.724 14.196 52.7422 14.2023 52.7429 14.2835C52.7435 14.351 52.8247 14.4062 52.9233 14.4062C53.1499 14.4062 53.16 14.1659 52.9412 13.9774C52.8525 13.901 52.5862 13.8078 52.3495 13.7704C52.1129 13.733 51.7366 13.6449 51.5134 13.5746C51.2204 13.4823 51.0857 13.4765 51.0293 13.5537C50.9735 13.63 50.9511 13.6302 50.9511 13.5544C50.9511 13.4959 50.8705 13.427 50.7718 13.4012C50.6732 13.3754 50.5926 13.3977 50.5926 13.4508C50.5926 13.5039 50.5434 13.4915 50.4833 13.4232C50.4232 13.355 50.3535 13.3271 50.3285 13.3613C50.3035 13.3955 50.247 13.3825 50.2029 13.3325C50.1588 13.2825 49.8379 13.2164 49.4897 13.1857C49.1414 13.155 48.8357 13.1125 48.8102 13.0912C48.7847 13.0699 48.4089 13.0222 47.975 12.9853C47.5412 12.9483 47.0571 12.8985 46.8993 12.8745C46.7415 12.8505 46.3778 12.8121 46.091 12.7891C45.8041 12.7662 45.5376 12.7205 45.4987 12.6876C45.4598 12.6547 45.398 12.73 45.3614 12.8549C45.2968 13.0753 45.2947 13.0758 45.2903 12.8714C45.286 12.6737 45.248 12.6603 44.6539 12.6494C44.3064 12.6431 43.782 12.6126 43.4885 12.5817C42.656 12.4941 41.8584 12.4792 41.2474 12.5398C40.9392 12.5704 40.6703 12.5723 40.6498 12.5443C40.5821 12.4519 34.3136 12.4704 34.3136 12.563C34.3136 12.612 34.277 12.6211 34.2323 12.5833C34.1518 12.5153 33.6043 12.4658 33.5627 12.5229ZM47.473 13.229C47.4974 13.283 47.5012 13.3271 47.4815 13.3271C47.4618 13.3271 47.4257 13.283 47.4013 13.229C47.3769 13.175 47.3731 13.1309 47.3929 13.1309C47.4126 13.1309 47.4486 13.175 47.473 13.229ZM50.8077 13.6646C50.8077 13.6885 50.7704 13.7394 50.7249 13.7779C50.6736 13.8213 50.6616 13.8048 50.6933 13.7347C50.7444 13.6216 50.8077 13.5828 50.8077 13.6646Z" fill="black"/>
</g>
<path d="M10.3692 10.063C9.62523 10.051 9.05523 10.039 8.65923 10.027C8.26923 10.015 8.05023 10.006 8.00223 10C7.96023 9.988 7.93323 9.97 7.92123 9.946C7.89123 9.91 7.87623 9.859 7.87623 9.793C7.87623 9.667 7.92123 9.541 8.01123 9.415C8.13723 9.217 8.28423 8.755 8.45223 8.029C8.62023 7.303 8.81823 6.376 9.04623 5.248C9.06423 5.164 9.13623 4.819 9.26223 4.213C9.41823 3.493 9.60123 2.623 9.81123 1.603C9.82923 1.543 9.86523 1.492 9.91923 1.45C9.97323 1.408 10.0242 1.387 10.0722 1.387C10.1562 1.387 10.2072 1.438 10.2252 1.54C10.0932 2.116 9.90423 3.04 9.65823 4.312C9.51423 5.068 9.31023 6.043 9.04623 7.237C8.78823 8.431 8.61123 9.19 8.51523 9.514C9.15723 9.622 9.67623 9.676 10.0722 9.676C10.5162 9.664 10.8402 9.652 11.0442 9.64C11.2482 9.628 11.4462 9.61 11.6382 9.586C11.7402 9.586 11.7912 9.637 11.7912 9.739C11.7912 9.787 11.7702 9.838 11.7282 9.892C11.6862 9.946 11.6352 9.982 11.5752 10C11.0952 10.042 10.6932 10.063 10.3692 10.063ZM15.653 10.018C15.515 10.018 15.386 9.946 15.266 9.802C15.152 9.652 15.095 9.493 15.095 9.325C15.095 8.953 15.194 8.323 15.392 7.435C15.242 7.759 15.047 8.092 14.807 8.434C14.573 8.77 14.342 9.067 14.114 9.325C13.886 9.583 13.718 9.751 13.61 9.829C13.46 9.943 13.295 10 13.115 10C12.773 10 12.602 9.784 12.602 9.352C12.602 8.932 12.761 8.41 13.079 7.786C13.397 7.156 13.775 6.61 14.213 6.148C14.651 5.692 15.005 5.464 15.275 5.464C15.551 5.464 15.707 5.584 15.743 5.824C15.761 5.896 15.77 5.974 15.77 6.058C15.8 6.04 15.833 6.031 15.869 6.031C16.007 6.031 16.076 6.097 16.076 6.229V6.265L15.968 6.661C15.884 6.961 15.797 7.405 15.707 7.993C15.617 8.581 15.572 9.07 15.572 9.46L15.662 9.514C15.806 9.604 15.878 9.694 15.878 9.784C15.878 9.844 15.857 9.898 15.815 9.946C15.773 9.994 15.719 10.018 15.653 10.018ZM13.187 9.532C13.253 9.532 13.307 9.511 13.349 9.469C13.961 8.947 14.504 8.224 14.978 7.3C15.182 6.916 15.308 6.664 15.356 6.544C15.41 6.424 15.437 6.307 15.437 6.193C15.437 6.133 15.422 6.079 15.392 6.031C15.362 5.983 15.323 5.959 15.275 5.959C15.215 5.959 15.137 5.986 15.041 6.04C14.801 6.166 14.516 6.433 14.186 6.841C13.862 7.249 13.595 7.681 13.385 8.137C13.163 8.599 13.052 9.01 13.052 9.37C13.052 9.478 13.097 9.532 13.187 9.532ZM19.5859 10.495C19.4659 10.495 19.4059 10.426 19.4059 10.288C19.4059 10.246 19.4119 10.171 19.4239 10.063C19.3219 10.039 19.2379 10.024 19.1719 10.018C18.9679 9.982 18.8179 9.943 18.7219 9.901C18.6259 9.859 18.5779 9.781 18.5779 9.667C18.5779 9.637 18.5959 9.604 18.6319 9.568C18.6619 9.526 18.6919 9.505 18.7219 9.505C18.7999 9.505 18.8869 9.529 18.9829 9.577C19.0609 9.613 19.1329 9.64 19.1989 9.658C19.2649 9.676 19.3579 9.685 19.4779 9.685C20.1619 6.355 20.8129 3.772 21.4309 1.936C21.2329 2.002 21.0529 2.077 20.8909 2.161C20.7349 2.239 20.6449 2.284 20.6209 2.296C20.4649 2.38 20.3719 2.422 20.3419 2.422C20.2339 2.422 20.1799 2.368 20.1799 2.26C20.1799 2.176 20.2189 2.107 20.2969 2.053C20.7409 1.777 21.1759 1.582 21.6019 1.468C21.6499 1.39 21.7129 1.351 21.7909 1.351C21.8389 1.351 21.8719 1.366 21.8899 1.396C22.2079 1.33 22.4959 1.297 22.7539 1.297C23.5039 1.297 24.0799 1.552 24.4819 2.062C24.8899 2.572 25.0939 3.334 25.0939 4.348C25.0939 5.926 24.7609 7.168 24.0949 8.074C23.4349 8.98 22.5769 9.583 21.5209 9.883C21.0409 10.021 20.4829 10.09 19.8469 10.09C19.8349 10.228 19.8079 10.33 19.7659 10.396C19.7239 10.462 19.6639 10.495 19.5859 10.495ZM19.9189 9.703C20.9869 9.703 21.8749 9.463 22.5829 8.983C23.2969 8.503 23.8219 7.867 24.1579 7.075C24.4999 6.283 24.6709 5.41 24.6709 4.456C24.6709 3.526 24.4879 2.836 24.1219 2.386C23.7559 1.93 23.2669 1.702 22.6549 1.702C22.4209 1.702 22.1539 1.741 21.8539 1.819C21.3619 3.367 20.8819 5.209 20.4139 7.345C20.2759 7.957 20.1109 8.743 19.9189 9.703ZM26.4343 10.09C26.2423 10.09 26.0923 10.06 25.9843 10C25.8763 9.934 25.7893 9.835 25.7233 9.703C25.5973 9.469 25.5343 9.187 25.5343 8.857C25.5343 8.281 25.6213 7.735 25.7953 7.219C25.9693 6.697 26.2063 6.259 26.5063 5.905C26.7943 5.569 27.1093 5.401 27.4513 5.401C27.6313 5.401 27.7723 5.476 27.8743 5.626C27.9823 5.77 28.0363 5.947 28.0363 6.157C28.0363 6.523 27.9403 6.841 27.7483 7.111C27.5623 7.381 27.3103 7.606 26.9923 7.786C26.7163 7.948 26.3803 8.11 25.9843 8.272L25.9663 8.92C25.9663 9.424 26.1193 9.676 26.4253 9.676C26.5513 9.676 26.6713 9.652 26.7853 9.604C26.9053 9.556 27.0343 9.49 27.1723 9.406C27.3343 9.31 27.4483 9.262 27.5143 9.262C27.6163 9.262 27.6673 9.316 27.6673 9.424C27.6673 9.502 27.5923 9.595 27.4423 9.703C27.2983 9.811 27.1273 9.904 26.9293 9.982C26.7313 10.054 26.5663 10.09 26.4343 10.09ZM26.0563 7.84C26.4583 7.678 26.7643 7.534 26.9743 7.408C27.1843 7.282 27.3433 7.123 27.4513 6.931C27.5653 6.739 27.6223 6.487 27.6223 6.175C27.6223 5.941 27.5233 5.824 27.3253 5.824C27.1513 5.824 26.9473 5.983 26.7133 6.301C26.4673 6.619 26.2693 7.036 26.1193 7.552C26.0773 7.696 26.0563 7.792 26.0563 7.84ZM28.4253 9.334C28.4253 9.256 28.4463 9.202 28.4883 9.172C28.5303 9.142 28.5843 9.121 28.6503 9.109C28.7043 9.109 28.7463 9.127 28.7763 9.163C28.8123 9.199 28.8543 9.256 28.9023 9.334C28.9503 9.418 28.9893 9.478 29.0193 9.514C29.0553 9.544 29.1153 9.559 29.1993 9.559C29.3913 9.559 29.5473 9.499 29.6673 9.379C29.7933 9.259 29.8563 9.118 29.8563 8.956C29.8563 8.782 29.8203 8.599 29.7483 8.407C29.6763 8.215 29.5653 7.975 29.4153 7.687C29.1153 7.147 28.9653 6.718 28.9653 6.4C28.9653 6.082 29.0433 5.827 29.1993 5.635C29.3613 5.443 29.5803 5.347 29.8563 5.347C30.0483 5.347 30.2313 5.401 30.4053 5.509C30.5793 5.617 30.6663 5.752 30.6663 5.914C30.6663 6.088 30.5943 6.175 30.4503 6.175C30.4083 6.175 30.3723 6.163 30.3423 6.139C30.3183 6.115 30.2943 6.088 30.2703 6.058C30.2463 6.022 30.2283 5.998 30.2163 5.986C30.1083 5.86 29.9883 5.797 29.8563 5.797C29.5623 5.797 29.4153 5.968 29.4153 6.31C29.4153 6.496 29.4513 6.685 29.5233 6.877C29.5953 7.069 29.7033 7.312 29.8473 7.606C29.9853 7.894 30.0903 8.134 30.1623 8.326C30.2343 8.518 30.2703 8.701 30.2703 8.875C30.2703 9.181 30.1773 9.439 29.9913 9.649C29.8053 9.859 29.5443 9.985 29.2083 10.027C28.9983 10.027 28.8153 9.955 28.6593 9.811C28.5033 9.661 28.4253 9.502 28.4253 9.334ZM30.6986 13.69C30.6086 13.69 30.5576 13.63 30.5456 13.51C30.7256 12.826 30.8816 12.142 31.0136 11.458L31.2836 10.045L31.5536 8.632L31.6256 8.254C31.8656 7.006 32.0276 6.172 32.1116 5.752V5.554C32.1116 5.494 32.1386 5.437 32.1926 5.383C32.2466 5.329 32.3096 5.302 32.3816 5.302C32.4476 5.302 32.4986 5.329 32.5346 5.383C32.5706 5.431 32.5886 5.485 32.5886 5.545C32.5886 5.629 32.5736 5.716 32.5436 5.806L32.5076 5.923C32.4956 5.971 32.4896 6.004 32.4896 6.022L32.3636 6.67C32.7956 5.848 33.2576 5.437 33.7496 5.437C34.0076 5.437 34.1936 5.515 34.3076 5.671C34.4276 5.821 34.4876 6.049 34.4876 6.355C34.4876 6.931 34.4066 7.504 34.2446 8.074C34.0826 8.644 33.8486 9.124 33.5426 9.514C33.2306 9.916 32.8586 10.117 32.4266 10.117C32.2586 10.117 32.1236 10.081 32.0216 10.009C31.9256 9.943 31.8476 9.826 31.7876 9.658L31.6796 10.189C31.5356 10.849 31.4306 11.347 31.3646 11.683C31.2206 12.415 31.0826 13.024 30.9506 13.51C30.8966 13.63 30.8126 13.69 30.6986 13.69ZM32.4896 9.694C32.8016 9.694 33.0926 9.496 33.3626 9.1C33.6986 8.59 33.9206 7.921 34.0286 7.093C34.0586 6.835 34.0736 6.613 34.0736 6.427C34.0736 6.037 33.9776 5.842 33.7856 5.842C33.5936 5.842 33.3746 5.98 33.1286 6.256C32.7926 6.634 32.5166 7.09 32.3006 7.624C32.0846 8.152 31.9766 8.611 31.9766 9.001C31.9766 9.463 32.1476 9.694 32.4896 9.694ZM35.2793 10.09C35.0753 10.09 34.9733 9.925 34.9733 9.595C34.9733 9.511 34.9883 9.436 35.0183 9.37C35.0483 9.268 35.0753 9.151 35.0993 9.019L35.2343 8.416L35.4143 7.624C35.4743 7.33 35.5463 7 35.6303 6.634C35.6423 6.598 35.6543 6.538 35.6663 6.454C35.7263 6.196 35.7563 6.046 35.7563 6.004V5.914C35.7563 5.866 35.7353 5.767 35.6933 5.617C35.6933 5.545 35.7173 5.479 35.7653 5.419C35.8193 5.359 35.8823 5.329 35.9543 5.329C36.0203 5.329 36.0773 5.374 36.1253 5.464C36.1733 5.554 36.1973 5.653 36.1973 5.761C36.1973 5.881 36.0593 6.529 35.7833 7.705C35.5073 8.881 35.3693 9.505 35.3693 9.577C35.3693 9.643 35.3993 9.676 35.4593 9.676C35.4893 9.676 35.5433 9.637 35.6213 9.559C35.6933 9.487 35.7533 9.451 35.8013 9.451C35.8973 9.451 35.9453 9.511 35.9453 9.631C35.9453 9.703 35.9033 9.775 35.8193 9.847C35.7353 9.919 35.6393 9.976 35.5313 10.018C35.4233 10.066 35.3393 10.09 35.2793 10.09ZM36.1883 4.654C36.0923 4.654 36.0203 4.642 35.9723 4.618H35.9363C35.7623 4.618 35.6753 4.516 35.6753 4.312C35.6753 4.21 35.7173 4.117 35.8013 4.033C35.8913 3.949 35.9873 3.907 36.0893 3.907C36.1913 3.907 36.2873 3.943 36.3773 4.015C36.4793 4.117 36.5303 4.216 36.5303 4.312C36.5303 4.402 36.4943 4.483 36.4223 4.555C36.3563 4.621 36.2783 4.654 36.1883 4.654ZM37.7801 10.036C37.5701 10.036 37.4111 9.982 37.3031 9.874C37.2011 9.766 37.1501 9.571 37.1501 9.289C37.1501 9.133 37.1681 8.953 37.2041 8.749L37.2851 8.236L37.3841 7.813L37.4381 7.57L37.5551 7.075C37.5671 6.997 37.5941 6.871 37.6361 6.697L37.6811 6.517L37.7621 6.13L37.8161 5.86C37.5821 5.86 37.3661 5.875 37.1681 5.905C37.0481 5.887 36.9881 5.836 36.9881 5.752C36.9881 5.692 37.0121 5.635 37.0601 5.581C37.1081 5.527 37.1651 5.497 37.2311 5.491L37.8791 5.509C37.8791 5.509 37.8941 5.434 37.9241 5.284C37.9361 5.164 37.9601 5.026 37.9961 4.87C38.0321 4.714 38.0771 4.576 38.1311 4.456C38.1851 4.324 38.2631 4.258 38.3651 4.258C38.4611 4.258 38.5091 4.312 38.5091 4.42V4.474C38.4851 4.594 38.4641 4.681 38.4461 4.735L38.2931 5.5H38.9411C39.1691 5.5 39.3101 5.518 39.3641 5.554C39.4121 5.59 39.4361 5.635 39.4361 5.689C39.4361 5.785 39.3911 5.848 39.3011 5.878C39.2171 5.902 39.0701 5.914 38.8601 5.914C38.6681 5.914 38.4551 5.905 38.2211 5.887C38.1851 6.085 38.0621 6.634 37.8521 7.534C37.6601 8.35 37.5641 8.866 37.5641 9.082C37.5641 9.316 37.5911 9.469 37.6451 9.541C37.6751 9.589 37.7381 9.613 37.8341 9.613C37.9181 9.613 37.9901 9.592 38.0501 9.55C38.1161 9.502 38.1821 9.439 38.2481 9.361C38.3141 9.277 38.3711 9.214 38.4191 9.172C38.4671 9.13 38.5181 9.109 38.5721 9.109C38.6921 9.109 38.7521 9.169 38.7521 9.289C38.7521 9.349 38.6921 9.448 38.5721 9.586C38.4521 9.724 38.3381 9.835 38.2301 9.919C38.1341 9.997 37.9841 10.036 37.7801 10.036ZM40.6638 10.09C40.4718 10.09 40.3218 10.06 40.2138 10C40.1058 9.934 40.0188 9.835 39.9528 9.703C39.8268 9.469 39.7638 9.187 39.7638 8.857C39.7638 8.281 39.8508 7.735 40.0248 7.219C40.1988 6.697 40.4358 6.259 40.7358 5.905C41.0238 5.569 41.3388 5.401 41.6808 5.401C41.8608 5.401 42.0018 5.476 42.1038 5.626C42.2118 5.77 42.2658 5.947 42.2658 6.157C42.2658 6.523 42.1698 6.841 41.9778 7.111C41.7918 7.381 41.5398 7.606 41.2218 7.786C40.9458 7.948 40.6098 8.11 40.2138 8.272L40.1958 8.92C40.1958 9.424 40.3488 9.676 40.6548 9.676C40.7808 9.676 40.9008 9.652 41.0148 9.604C41.1348 9.556 41.2638 9.49 41.4018 9.406C41.5638 9.31 41.6778 9.262 41.7438 9.262C41.8458 9.262 41.8968 9.316 41.8968 9.424C41.8968 9.502 41.8218 9.595 41.6718 9.703C41.5278 9.811 41.3568 9.904 41.1588 9.982C40.9608 10.054 40.7958 10.09 40.6638 10.09ZM40.2858 7.84C40.6878 7.678 40.9938 7.534 41.2038 7.408C41.4138 7.282 41.5728 7.123 41.6808 6.931C41.7948 6.739 41.8518 6.487 41.8518 6.175C41.8518 5.941 41.7528 5.824 41.5548 5.824C41.3808 5.824 41.1768 5.983 40.9428 6.301C40.6968 6.619 40.4988 7.036 40.3488 7.552C40.3068 7.696 40.2858 7.792 40.2858 7.84Z" fill="black"/>
</g>
<defs>
<filter id="filter0_d" x="-3.90527" y="10.4503" width="59.0162" height="6.13232" filterUnits="userSpaceOnUse" color-interpolation-filters="sRGB">
<feFlood flood-opacity="0" result="BackgroundImageFix"/>
<feColorMatrix in="SourceAlpha" type="matrix" values="0 0 0 0 0 0 0 0 0 0 0 0 0 0 0 0 0 0 127 0"/>
<feOffset dx="1" dy="0.1"/>
<feGaussianBlur stdDeviation="0.5"/>
<feColorMatrix type="matrix" values="0 0 0 0 0 0 0 0 0 0 0 0 0 0 0 0 0 0 0.5 0"/>
<feBlend mode="normal" in2="BackgroundImageFix" result="effect1_dropShadow"/>
<feBlend mode="normal" in="SourceGraphic" in2="effect1_dropShadow" result="shape"/>
</filter>
<filter id="filter1_d" x="-2.7829" y="11.5835" width="57.8824" height="9.6087" filterUnits="userSpaceOnUse" color-interpolation-filters="sRGB">
<feFlood flood-opacity="0" result="BackgroundImageFix"/>
<feColorMatrix in="SourceAlpha" type="matrix" values="0 0 0 0 0 0 0 0 0 0 0 0 0 0 0 0 0 0 127 0"/>
<feOffset dx="1" dy="0.1"/>
<feGaussianBlur stdDeviation="0.5"/>
<feColorMatrix type="matrix" values="0 0 0 0 0 0 0 0 0 0 0 0 0 0 0 0 0 0 0.5 0"/>
<feBlend mode="normal" in2="BackgroundImageFix" result="effect1_dropShadow"/>
<feBlend mode="normal" in="SourceGraphic" in2="effect1_dropShadow" result="shape"/>
</filter>
<clipPath id="clip0">
<rect width="50" height="20" fill="white"/>
</clipPath>
</defs>
</svg>
